<svg width="20" height="21" viewBox="0 0 20 21" fill="none" xmlns="http://www.w3.org/2000/svg">
<g clip-path="url(#clip0_80_442)">
<path d="M14.667 5.10935H16.0003M6.00033 1.10935H14.0003C15.4148 1.10935 16.7714 1.67126 17.7716 2.67145C18.7718 3.67165 19.3337 5.0282 19.3337 6.44269V14.4427C19.3337 15.8572 18.7718 17.2137 17.7716 18.2139C16.7714 19.2141 15.4148 19.776 14.0003 19.776H6.00033C4.58584 19.776 3.22928 19.2141 2.22909 18.2139C1.2289 17.2137 0.666992 15.8572 0.666992 14.4427V6.44269C0.666992 5.0282 1.2289 3.67165 2.22909 2.67145C3.22928 1.67126 4.58584 1.10935 6.00033 1.10935ZM10.0003 14.4427C8.93946 14.4427 7.92204 14.0213 7.1719 13.2711C6.42175 12.521 6.00033 11.5036 6.00033 10.4427C6.00033 9.38182 6.42175 8.36441 7.1719 7.61426C7.92204 6.86411 8.93946 6.44269 10.0003 6.44269C11.0612 6.44269 12.0786 6.86411 12.8288 7.61426C13.5789 8.36441 14.0003 9.38182 14.0003 10.4427C14.0003 11.5036 13.5789 12.521 12.8288 13.2711C12.0786 14.0213 11.0612 14.4427 10.0003 14.4427Z" stroke="#E6FBFF" stroke-width="1.6"/>
</g>
<defs>
<clipPath id="clip0_80_442">
<rect width="20" height="20" fill="white" transform="translate(0 0.442688)"/>
</clipPath>
</defs>
</svg>
