<svg width="20" height="21" viewBox="0 0 20 21" fill="none" xmlns="http://www.w3.org/2000/svg">
<path d="M16.667 18.776H15.2753C14.8333 18.776 14.4094 18.6004 14.0968 18.2879C13.7843 17.9753 13.6087 17.5514 13.6087 17.1094V12.6344C13.6161 12.4589 13.5631 12.2861 13.4584 12.145C13.3537 12.004 13.2038 11.9031 13.0337 11.8594C12.9347 11.8443 12.8336 11.8506 12.7373 11.8779C12.641 11.9052 12.5517 11.9529 12.4753 12.0177C12.3968 12.0844 12.3337 12.1674 12.2905 12.2609C12.2473 12.3545 12.2251 12.4563 12.2253 12.5594V17.1094C12.2253 17.5514 12.0497 17.9753 11.7372 18.2879C11.4246 18.6004 11.0007 18.776 10.5587 18.776H9.16699C8.72497 18.776 8.30104 18.6004 7.98848 18.2879C7.67592 17.9753 7.50033 17.5514 7.50033 17.1094V12.5594C7.50033 11.1228 8.07101 9.74502 9.08683 8.72919C10.1027 7.71337 11.4804 7.14269 12.917 7.14269C14.3536 7.14269 15.7313 7.71337 16.7472 8.72919C17.763 9.74502 18.3337 11.1228 18.3337 12.5594V17.1094C18.3337 17.5514 18.1581 17.9753 17.8455 18.2879C17.5329 18.6004 17.109 18.776 16.667 18.776ZM12.917 10.1844C13.0474 10.1761 13.1782 10.1761 13.3087 10.1844C13.8681 10.292 14.3719 10.5931 14.7315 11.035C15.0911 11.4769 15.2836 12.0313 15.2753 12.601V17.1094H16.667V12.5594C16.667 11.5648 16.2719 10.611 15.5686 9.9077C14.8654 9.20444 13.9116 8.80935 12.917 8.80935C11.9224 8.80935 10.9686 9.20444 10.2653 9.9077C9.56208 10.611 9.16699 11.5648 9.16699 12.5594V17.1094H10.5587V12.5594C10.5586 11.9323 10.8066 11.3308 11.2484 10.8858C11.6902 10.4409 12.29 10.1888 12.917 10.1844ZM5.00033 18.776H3.33366C2.89163 18.776 2.46771 18.6004 2.15515 18.2879C1.84259 17.9753 1.66699 17.5514 1.66699 17.1094V8.77602C1.66699 8.33399 1.84259 7.91007 2.15515 7.59751C2.46771 7.28495 2.89163 7.10935 3.33366 7.10935H5.00033C5.44235 7.10935 5.86628 7.28495 6.17884 7.59751C6.4914 7.91007 6.66699 8.33399 6.66699 8.77602V17.1094C6.66699 17.5514 6.4914 17.9753 6.17884 18.2879C5.86628 18.6004 5.44235 18.776 5.00033 18.776ZM3.33366 8.77602V17.1094H5.00033V8.77602H3.33366ZM4.16699 6.27602C3.67254 6.27602 3.18919 6.1294 2.77807 5.8547C2.36694 5.57999 2.04651 5.18955 1.85729 4.73273C1.66808 4.27591 1.61857 3.77325 1.71503 3.2883C1.81149 2.80334 2.0496 2.35789 2.39923 2.00825C2.74886 1.65862 3.19432 1.42052 3.67927 1.32406C4.16422 1.22759 4.66689 1.2771 5.1237 1.46632C5.58052 1.65554 5.97096 1.97597 6.24567 2.3871C6.52037 2.79822 6.66699 3.28157 6.66699 3.77602C6.66699 4.43906 6.4036 5.07495 5.93476 5.54379C5.46592 6.01263 4.83003 6.27602 4.16699 6.27602ZM4.16699 2.94269C4.00218 2.94269 3.84106 2.99156 3.70402 3.08313C3.56698 3.1747 3.46017 3.30485 3.39709 3.45712C3.33402 3.60939 3.31752 3.77695 3.34967 3.9386C3.38183 4.10025 3.46119 4.24873 3.57774 4.36528C3.69428 4.48182 3.84277 4.56119 4.00442 4.59334C4.16607 4.6255 4.33362 4.60899 4.4859 4.54592C4.63817 4.48285 4.76832 4.37604 4.85988 4.239C4.95145 4.10196 5.00033 3.94084 5.00033 3.77602C5.00033 3.55501 4.91253 3.34305 4.75625 3.18677C4.59997 3.03049 4.38801 2.94269 4.16699 2.94269Z" fill="#E6FBFF"/>
</svg>
